<svg width="24" height="24" viewBox="0 0 24 24" fill="none" xmlns="http://www.w3.org/2000/svg">
<path d="M14.2219 4.27493C14.2468 4.1796 14.2905 4.09019 14.3505 4.01197C14.4104 3.93374 14.4854 3.86826 14.5709 3.81937C14.6565 3.77047 14.751 3.73915 14.8488 3.72723C14.9466 3.7153 15.0458 3.72302 15.1406 3.74993C16.5387 4.12491 17.8136 4.86114 18.8371 5.88469C19.8607 6.90824 20.5969 8.18308 20.9719 9.58118C20.9988 9.67599 21.0065 9.77521 20.9946 9.87303C20.9827 9.97086 20.9513 10.0653 20.9024 10.1509C20.8535 10.2364 20.7881 10.3114 20.7098 10.3713C20.6316 10.4313 20.5422 10.475 20.4469 10.4999C20.3829 10.5185 20.3166 10.5279 20.25 10.5281C20.0845 10.5271 19.9239 10.4714 19.7933 10.3697C19.6627 10.2679 19.5695 10.1258 19.5281 9.96556C19.2162 8.82395 18.6121 7.78339 17.7752 6.94657C16.9384 6.10974 15.8979 5.50558 14.7562 5.19368C14.6601 5.16977 14.5697 5.12679 14.4904 5.06729C14.4111 5.00779 14.3446 4.93299 14.2948 4.84732C14.2449 4.76164 14.2128 4.66683 14.2003 4.56852C14.1878 4.4702 14.1951 4.37036 14.2219 4.27493ZM13.9781 8.09056C14.6127 8.26427 15.1911 8.60028 15.6563 9.0655C16.1215 9.53072 16.4575 10.1091 16.6312 10.7437C16.6712 10.9048 16.764 11.0478 16.8949 11.1498C17.0258 11.2518 17.1872 11.3069 17.3531 11.3062C17.4167 11.3068 17.48 11.2973 17.5406 11.2781C17.6368 11.2541 17.7272 11.2112 17.8065 11.1517C17.8857 11.0922 17.9523 11.0174 18.0021 10.9317C18.0519 10.846 18.0841 10.7512 18.0966 10.6529C18.1091 10.5546 18.1018 10.4547 18.075 10.3593C17.8382 9.46822 17.3702 8.65554 16.7182 8.00359C16.0663 7.35163 15.2536 6.88357 14.3625 6.64681C14.2647 6.61117 14.1605 6.59629 14.0566 6.60312C13.9527 6.60994 13.8514 6.63833 13.759 6.68647C13.6667 6.73461 13.5854 6.80144 13.5203 6.88272C13.4553 6.96399 13.4078 7.05793 13.381 7.15855C13.3542 7.25916 13.3487 7.36426 13.3647 7.46713C13.3808 7.57001 13.4181 7.66842 13.4743 7.75609C13.5304 7.84376 13.6042 7.91878 13.691 7.97636C13.7777 8.03395 13.8755 8.07284 13.9781 8.09056ZM21.7125 17.1374C21.5467 18.4034 20.9267 19.5661 19.9679 20.4094C19.0092 21.2526 17.7768 21.719 16.5 21.7218C9.05625 21.7218 3 15.6656 3 8.22181C3.00281 6.94499 3.46919 5.71263 4.31243 4.75386C5.15566 3.7951 6.31837 3.17516 7.58437 3.00931C7.90711 2.97353 8.23284 3.04147 8.51435 3.2033C8.79586 3.36513 9.01851 3.61242 9.15 3.90931L11.0344 8.30618C11.1321 8.53441 11.1713 8.78344 11.1484 9.03065C11.1255 9.27787 11.0412 9.51544 10.9031 9.72181L9.34687 12.1031C10.0516 13.5332 11.2127 14.6878 12.6469 15.3843L15 13.8187C15.2061 13.6797 15.4443 13.5956 15.692 13.5743C15.9397 13.553 16.1888 13.5951 16.4156 13.6968L20.8125 15.5718C21.1094 15.7033 21.3567 15.9259 21.5185 16.2075C21.6803 16.489 21.7483 16.8147 21.7125 17.1374ZM20.2219 16.9499L15.825 15.0749L13.4812 16.6406C13.2656 16.7831 13.0168 16.8675 12.7589 16.8856C12.501 16.9037 12.2428 16.8548 12.0094 16.7437C10.2628 15.8988 8.84994 14.4926 7.99687 12.7499C7.8844 12.5173 7.83393 12.2596 7.85036 12.0017C7.86678 11.7438 7.94955 11.4945 8.09062 11.2781L9.65625 8.89681L7.77187 4.49993C6.86714 4.61624 6.03582 5.05832 5.43356 5.74341C4.8313 6.42851 4.4994 7.30963 4.5 8.22181C4.50248 11.4036 5.76756 14.4544 8.01746 16.7043C10.2674 18.9542 13.3182 20.2193 16.5 20.2218C17.4122 20.2224 18.2933 19.8905 18.9784 19.2883C19.6635 18.686 20.1056 17.8547 20.2219 16.9499Z" fill="#F5F5F5"/>
</svg>
